<?xml version="1.0" encoding="UTF-8"?>
<svg version="1.1" xmlns="http://www.w3.org/2000/svg" width="86" height="92">
<path d="M0 0 C1.30509967 0.65643791 2.60275333 1.32783738 3.89355469 2.01196289 C4.58680847 2.36472794 5.28006226 2.71749298 5.99432373 3.08094788 C8.19171688 4.20239651 10.37859097 5.342748 12.56542969 6.48461914 C14.76853756 7.61864246 16.9736185 8.74873145 19.17938232 9.87757874 C20.54700026 10.57925755 21.91268832 11.28471376 23.27618408 11.99436951 C25.93548799 13.37280787 28.46792296 14.59795023 31.31542969 15.54711914 C33.11206407 18.99068014 33.58499905 21.95948655 33.66943359 25.80883789 C33.7079393 27.34568237 33.7079393 27.34568237 33.7472229 28.91357422 C33.76199677 30.00951904 33.77677063 31.10546387 33.79199219 32.23461914 C33.80813568 33.36988037 33.82427917 34.5051416 33.84091187 35.67480469 C33.86853047 38.07195985 33.89000295 40.46919262 33.90576172 42.86645508 C33.94031504 46.53494666 34.02813873 50.19988832 34.11621094 53.86743164 C34.1364558 56.19813435 34.15349083 58.52886761 34.16699219 60.85961914 C34.20200836 61.95556396 34.23702454 63.05150879 34.27310181 64.18066406 C34.23079315 71.58912042 34.23079315 71.58912042 31.67546082 74.26347351 C29.60923424 75.5732943 27.55834302 76.57609741 25.31542969 77.54711914 C24.34742432 78.12824463 23.37941895 78.70937012 22.38208008 79.30810547 C19.40113533 81.03050643 16.39283547 82.69743691 13.37792969 84.35961914 C12.36408203 84.95709961 11.35023437 85.55458008 10.30566406 86.17016602 C1.52368581 90.94594661 -6.87123136 92.48687984 -16.68457031 90.54711914 C-23.03634393 88.62943616 -28.87211331 85.5816544 -34.74707031 82.54711914 C-36.30609295 81.77320764 -37.86663754 81.0023543 -39.42871094 80.23461914 C-43.19907551 78.37344516 -46.94665029 76.47256882 -50.68457031 74.54711914 C-50.76065304 67.09072406 -50.81318408 59.63442914 -50.84936523 52.17773438 C-50.86444895 49.64123799 -50.88491862 47.10476766 -50.91088867 44.56835938 C-50.94728912 40.92189092 -50.96430114 37.27576742 -50.97753906 33.62915039 C-50.99302292 32.49564651 -51.00850677 31.36214264 -51.02445984 30.19429016 C-51.02468643 29.13356796 -51.02491302 28.07284576 -51.02514648 26.97998047 C-51.03180832 26.04954422 -51.03847015 25.11910797 -51.04533386 24.16047668 C-50.60574275 20.97609524 -49.57266402 19.13121697 -47.68457031 16.54711914 C-45.4692919 15.13855014 -43.42734254 13.99642368 -41.07519531 12.88305664 C-40.43016052 12.56430573 -39.78512573 12.24555481 -39.12054443 11.91714478 C-37.06477884 10.90545888 -35.00002554 9.91384636 -32.93457031 8.92211914 C-31.56155792 8.24889598 -30.18915501 7.57442827 -28.81738281 6.89868164 C-25.1191229 5.085985 -21.41511324 3.29272186 -17.68457031 1.54711914 C-16.52666992 0.98202637 -15.36876953 0.41693359 -14.17578125 -0.1652832 C-8.81409089 -2.1427346 -5.32163536 -2.09839995 0 0 Z " fill="#0002F8" transform="translate(51.6845703125,1.452880859375)"/>
<path d="M0 0 C4.71649678 1.4615396 9.13407387 3.36172356 13.5859375 5.4765625 C14.20895752 5.76942139 14.83197754 6.06228027 15.47387695 6.36401367 C17.7759813 7.4473404 20.07533461 8.53650547 22.375 9.625 C30.109375 13.275625 30.109375 13.275625 38 17 C38 32.51 38 48.02 38 64 C35.15337822 60.44172277 33.04284462 57.54117419 30.8984375 53.640625 C30.33084717 52.61565918 29.76325684 51.59069336 29.1784668 50.53466797 C28.58332275 49.45072754 27.98817871 48.36678711 27.375 47.25 C26.11986125 44.98621811 24.8633459 42.72319893 23.60546875 40.4609375 C22.99106934 39.35588867 22.37666992 38.25083984 21.74365234 37.11230469 C15.98089549 26.82616294 9.87141624 16.73478578 3.77807617 6.64208984 C1.10284621 2.20569241 1.10284621 2.20569241 0 0 Z " fill="#00CB04" transform="translate(3,25)"/>
<path d="M0 0 C0 15.51 0 31.02 0 47 C-0.66 47 -1.32 47 -2 47 C-2 46.34 -2 45.68 -2 45 C-2.53367188 44.77570313 -3.06734375 44.55140625 -3.6171875 44.3203125 C-6.79228932 42.56099379 -9.40093781 40.24662612 -12.125 37.875 C-13.28552143 36.87781485 -14.44698921 35.88173006 -15.609375 34.88671875 C-16.18236328 34.39606934 -16.75535156 33.90541992 -17.34570312 33.39990234 C-20.42773611 30.79181835 -23.60172313 28.30030928 -26.765625 25.79296875 C-29.91041687 23.26943821 -32.95753639 20.64562053 -36 18 C-32.69271179 15.33736566 -29.12711515 13.36893947 -25.37109375 11.42578125 C-24.74018326 11.09708542 -24.10927277 10.76838959 -23.45924377 10.42973328 C-22.13144153 9.73959898 -20.8026395 9.05138521 -19.47290039 8.36499023 C-17.43712274 7.31230492 -15.40698122 6.24926884 -13.37695312 5.18554688 C-12.08366304 4.51498871 -10.79005397 3.84504534 -9.49609375 3.17578125 C-8.88978622 2.85708572 -8.2834787 2.5383902 -7.65879822 2.21003723 C-4.88159614 0.78768689 -3.17062166 0 0 0 Z " fill="#00C707" transform="translate(81,25)"/>
</svg>
